<svg xmlns="http://www.w3.org/2000/svg" version="1.1" xmlns:xlink="http://www.w3.org/1999/xlink" xmlns:svgjs="http://svgjs.dev/svgjs" width="1500" height="363" viewBox="0 0 1500 363"><g transform="matrix(1,0,0,1,-0.9090909090909918,-0.09302654408230637)"><svg viewBox="0 0 396 96" data-background-color="#581381" preserveAspectRatio="xMidYMid meet" height="363" width="1500" xmlns="http://www.w3.org/2000/svg" xmlns:xlink="http://www.w3.org/1999/xlink"><g id="tight-bounds" transform="matrix(1,0,0,1,0.2400000000000091,0.024602061244905826)"><svg viewBox="0 0 395.52 95.9507958775102" height="95.9507958775102" width="395.52"><g><svg viewBox="0 0 552.428808223248 134.01593804279202" height="95.9507958775102" width="395.52"><g transform="matrix(1,0,0,1,156.908808223248,18.521739628200642)"><svg viewBox="0 0 395.52 96.97245878639073" height="96.97245878639073" width="395.52"><g id="textblocktransform"><svg viewBox="0 0 395.52 96.97245878639073" height="96.97245878639073" width="395.52" id="textblock"><g><svg viewBox="0 0 395.52 96.97245878639073" height="96.97245878639073" width="395.52"><g transform="matrix(1,0,0,1,0,0)"><svg width="395.52" viewBox="0 -34.95 142.54 34.95" height="96.97245878639073" data-palette-color="#b49bff"><path d="M0-2.15L4.85-2.15 4.85-34.95 10.75-34.95 10.75-2.15 15.6-2.15 15.6 0 0 0 0-2.15ZM51.75-2.15L57.55-2.15 57.55 0 46.4 0 42.9-7.95 25.4-7.95 21.9 0 10.75 0 10.75-2.15 16.55-2.15 31-34.95 37.3-34.95 51.75-2.15ZM27.8-13.4L40.5-13.4 34.15-27.8 27.8-13.4ZM91.4-2.15L103.45-2.15 103.45 0 84.8 0 77.45-23.95 77.05-23.95 69.7 0 51.05 0 51.05-2.15 63.1-2.15 51.65-34.95 58-34.95 66.8-9.8 74.6-34.95 79.9-34.95 87.7-9.8 96.5-34.95 102.85-34.95 91.4-2.15ZM130.99-2.15L142.54-2.15 142.54 0 103.44 0 103.44-2.15 108.29-2.15 108.29-34.95 120.29-34.95Q129.69-34.95 134.74-30.38 139.79-25.8 139.79-17.5L139.79-17.5Q139.79-6.35 130.99-2.15L130.99-2.15ZM133.84-17.5L133.84-17.5Q133.84-29.5 120.09-29.5L120.09-29.5 114.19-29.5 114.19-5.55 120.74-5.55Q127.09-5.55 130.47-8.58 133.84-11.6 133.84-17.5Z" opacity="1" transform="matrix(1,0,0,1,0,0)" fill="#b49bff" class="wordmark-text-0" data-fill-palette-color="primary" id="text-0"></path></svg></g></svg></g></svg></g></svg></g><g><svg viewBox="0 0 134.01593804279202 134.01593804279202" height="134.01593804279202" width="134.01593804279202"><g><svg xmlns="http://www.w3.org/2000/svg" xmlns:xlink="http://www.w3.org/1999/xlink" version="1.1" x="0" y="0" viewBox="2 2 60 60" style="enable-background:new 0 0 64 64;" xml:space="preserve" height="134.01593804279202" width="134.01593804279202" class="icon-icon-0" data-fill-palette-color="accent" id="icon-0"><path d="M57 2H7C4.243 2 2 4.243 2 7v37c0 2.757 2.243 5 5 5h16.461l-3.111 7H10c-0.552 0-1 0.448-1 1 0 2.757 2.243 5 5 5h36c2.757 0 5-2.243 5-5 0-0.552-0.448-1-1-1H43.65l-3.111-7H57c2.757 0 5-2.243 5-5V7C62 4.243 59.757 2 57 2zM7 4h50c1.654 0 3 1.346 3 3v33H4V7C4 5.346 5.346 4 7 4zM50 60H14c-1.304 0-2.416-0.836-2.829-2H21h22 9.829C52.416 59.164 51.304 60 50 60zM41.461 56H22.539l3.111-7h12.7L41.461 56zM57 47H39 25 7c-1.654 0-3-1.346-3-3v-2h56v2C60 45.654 58.654 47 57 47z" fill="#fff2ff" data-fill-palette-color="accent"></path><path d="M21 19c0 0.552 0.448 1 1 1h1.522c0.105 0.298 0.226 0.589 0.361 0.873l-1.076 1.077c-0.391 0.391-0.391 1.023 0 1.414l2.829 2.829c0.391 0.391 1.023 0.391 1.414 0l1.077-1.076c0.284 0.135 0.575 0.256 0.873 0.361V27c0 0.552 0.448 1 1 1h4c0.552 0 1-0.448 1-1v-1.522c0.298-0.105 0.589-0.226 0.873-0.361l1.077 1.076c0.391 0.391 1.023 0.391 1.414 0l2.829-2.829c0.391-0.391 0.391-1.023 0-1.414l-1.076-1.077c0.135-0.284 0.256-0.575 0.361-0.873H42c0.552 0 1-0.448 1-1v-4c0-0.552-0.448-1-1-1h-1.522c-0.105-0.298-0.226-0.589-0.361-0.873l1.076-1.077c0.391-0.391 0.391-1.023 0-1.414l-2.829-2.829c-0.391-0.391-1.023-0.391-1.414 0l-1.077 1.076C35.589 8.749 35.298 8.628 35 8.522V7c0-0.552-0.448-1-1-1h-4c-0.552 0-1 0.448-1 1v1.522c-0.298 0.105-0.589 0.226-0.873 0.361L27.05 7.808c-0.391-0.391-1.023-0.391-1.414 0l-2.829 2.829c-0.391 0.391-0.391 1.023 0 1.414l1.076 1.077c-0.135 0.284-0.256 0.575-0.361 0.873H22c-0.552 0-1 0.448-1 1V19zM23 16h1.262c0.456 0 0.854-0.309 0.968-0.75 0.164-0.635 0.414-1.24 0.745-1.799 0.232-0.393 0.168-0.893-0.154-1.215l-0.892-0.892 1.415-1.415 0.892 0.892c0.323 0.323 0.823 0.386 1.215 0.154 0.56-0.331 1.165-0.581 1.799-0.745C30.691 10.117 31 9.718 31 9.262V8h2v1.262c0 0.456 0.309 0.854 0.75 0.968 0.635 0.164 1.24 0.414 1.799 0.745 0.393 0.231 0.893 0.167 1.215-0.154l0.892-0.892 1.415 1.415-0.892 0.892c-0.323 0.322-0.386 0.823-0.154 1.215 0.331 0.56 0.581 1.165 0.745 1.799 0.114 0.441 0.512 0.75 0.968 0.75H41v2h-1.262c-0.456 0-0.854 0.309-0.968 0.75-0.164 0.635-0.414 1.24-0.745 1.799-0.232 0.393-0.168 0.893 0.154 1.215l0.892 0.892-1.415 1.415-0.892-0.892c-0.322-0.322-0.822-0.385-1.215-0.154-0.56 0.331-1.165 0.581-1.799 0.745C33.309 23.883 33 24.282 33 24.738V26h-2v-1.262c0-0.456-0.309-0.854-0.75-0.968-0.635-0.164-1.24-0.414-1.799-0.745-0.394-0.232-0.893-0.168-1.215 0.154l-0.892 0.892-1.415-1.415 0.892-0.892c0.323-0.322 0.386-0.823 0.154-1.215-0.331-0.56-0.581-1.165-0.745-1.799C25.117 18.309 24.718 18 24.262 18H23V16z" fill="#fff2ff" data-fill-palette-color="accent"></path><path d="M32 21c2.206 0 4-1.794 4-4s-1.794-4-4-4-4 1.794-4 4S29.794 21 32 21zM32 15c1.103 0 2 0.897 2 2s-0.897 2-2 2-2-0.897-2-2S30.897 15 32 15z" fill="#fff2ff" data-fill-palette-color="accent"></path><rect x="6" y="16" width="13" height="2" fill="#fff2ff" data-fill-palette-color="accent"></rect><path d="M13.707 13.707L17.414 10H21V8h-4c-0.265 0-0.52 0.105-0.707 0.293L12.586 12H6v2h7C13.265 14 13.52 13.895 13.707 13.707z" fill="#fff2ff" data-fill-palette-color="accent"></path><path d="M16.293 25.707C16.48 25.895 16.735 26 17 26h4v-2h-3.586l-3.707-3.707C13.52 20.105 13.265 20 13 20H6v2h6.586L16.293 25.707z" fill="#fff2ff" data-fill-palette-color="accent"></path><rect x="45" y="16" width="13" height="2" fill="#fff2ff" data-fill-palette-color="accent"></rect><path d="M50.293 13.707C50.48 13.895 50.735 14 51 14h7v-2h-6.586l-3.707-3.707C47.52 8.105 47.265 8 47 8h-4v2h3.586L50.293 13.707z" fill="#fff2ff" data-fill-palette-color="accent"></path><path d="M50.293 20.293L46.586 24H43v2h4c0.265 0 0.52-0.105 0.707-0.293L51.414 22H58v-2h-7C50.735 20 50.48 20.105 50.293 20.293z" fill="#fff2ff" data-fill-palette-color="accent"></path><path d="M21.793 30.293l-3 3c-0.391 0.391-0.391 1.023 0 1.414l3 3 1.414-1.414L20.914 34l2.293-2.293L21.793 30.293z" fill="#fff2ff" data-fill-palette-color="accent"></path><path d="M42.207 30.293l-1.414 1.414L43.086 34l-2.293 2.293 1.414 1.414 3-3c0.391-0.391 0.391-1.023 0-1.414L42.207 30.293z" fill="#fff2ff" data-fill-palette-color="accent"></path><rect x="32" y="35" width="2" height="2" fill="#fff2ff" data-fill-palette-color="accent"></rect><rect x="36" y="35" width="2" height="2" fill="#fff2ff" data-fill-palette-color="accent"></rect><rect x="25.206" y="32.996" transform="matrix(0.438 -0.899 0.899 0.438 -14.5227 44.7615)" width="6.666" height="2" fill="#fff2ff" data-fill-palette-color="accent"></rect></svg></g></svg></g></svg></g><defs></defs></svg><rect width="395.52" height="95.9507958775102" fill="none" stroke="none" visibility="hidden"></rect></g></svg></g></svg>